<svg width="360" height="800" viewBox="0 0 360 800" fill="none" xmlns="http://www.w3.org/2000/svg">
<g clip-path="url(#clip0_12_63)">
<rect width="360" height="800" fill="black"/>
<g opacity="0.5">
<rect x="-26" y="71" width="92" height="92" rx="20" fill="#1DB13E"/>
<rect x="89" y="71" width="92" height="92" rx="20" fill="#A0D5A8"/>
<rect x="204" y="71" width="92" height="92" rx="20" fill="url(#paint0_linear_12_63)"/>
<rect x="-26" y="184" width="92" height="92" rx="20" fill="url(#paint1_linear_12_63)"/>
<rect x="204" y="-42" width="92" height="92" rx="20" fill="url(#paint2_linear_12_63)"/>
<rect x="89" y="184" width="92" height="92" rx="20" fill="url(#paint3_linear_12_63)"/>
<rect x="-26" y="-42" width="92" height="92" rx="20" fill="#017E15"/>
<rect x="89" y="-42" width="92" height="92" rx="20" fill="#3CB348"/>
</g>
<g opacity="0.5">
<rect x="388" y="725" width="92" height="92" rx="20" transform="rotate(-180 388 725)" fill="#1DB13E"/>
<rect x="273" y="725" width="92" height="92" rx="20" transform="rotate(-180 273 725)" fill="#A0D5A8"/>
<rect x="158" y="725" width="92" height="92" rx="20" transform="rotate(-180 158 725)" fill="url(#paint4_linear_12_63)"/>
<rect x="388" y="612" width="92" height="92" rx="20" transform="rotate(-180 388 612)" fill="url(#paint5_linear_12_63)"/>
<rect x="158" y="838" width="92" height="92" rx="20" transform="rotate(-180 158 838)" fill="url(#paint6_linear_12_63)"/>
<rect x="273" y="612" width="92" height="92" rx="20" transform="rotate(-180 273 612)" fill="url(#paint7_linear_12_63)"/>
<rect x="388" y="838" width="92" height="92" rx="20" transform="rotate(-180 388 838)" fill="#017E15"/>
<rect x="273" y="838" width="92" height="92" rx="20" transform="rotate(-180 273 838)" fill="#3CB348"/>
</g>
</g>
<defs>
<linearGradient id="paint0_linear_12_63" x1="204" y1="117" x2="296" y2="117" gradientUnits="userSpaceOnUse">
<stop stop-color="#909091"/>
<stop offset="1" stop-color="#909091" stop-opacity="0"/>
</linearGradient>
<linearGradient id="paint1_linear_12_63" x1="20" y1="184" x2="20" y2="276" gradientUnits="userSpaceOnUse">
<stop stop-color="#1D7926"/>
<stop offset="1" stop-color="#1D7926" stop-opacity="0"/>
</linearGradient>
<linearGradient id="paint2_linear_12_63" x1="204" y1="4" x2="296" y2="4" gradientUnits="userSpaceOnUse">
<stop stop-color="#1D7926"/>
<stop offset="1" stop-color="#1D7926" stop-opacity="0"/>
</linearGradient>
<linearGradient id="paint3_linear_12_63" x1="135" y1="184" x2="135" y2="276" gradientUnits="userSpaceOnUse">
<stop stop-color="#909091"/>
<stop offset="1" stop-color="#909091" stop-opacity="0"/>
</linearGradient>
<linearGradient id="paint4_linear_12_63" x1="158" y1="771" x2="250" y2="771" gradientUnits="userSpaceOnUse">
<stop stop-color="#909091"/>
<stop offset="1" stop-color="#909091" stop-opacity="0"/>
</linearGradient>
<linearGradient id="paint5_linear_12_63" x1="434" y1="612" x2="434" y2="704" gradientUnits="userSpaceOnUse">
<stop stop-color="#1D7926"/>
<stop offset="1" stop-color="#1D7926" stop-opacity="0"/>
</linearGradient>
<linearGradient id="paint6_linear_12_63" x1="158" y1="884" x2="250" y2="884" gradientUnits="userSpaceOnUse">
<stop stop-color="#1D7926"/>
<stop offset="1" stop-color="#1D7926" stop-opacity="0"/>
</linearGradient>
<linearGradient id="paint7_linear_12_63" x1="319" y1="612" x2="319" y2="704" gradientUnits="userSpaceOnUse">
<stop stop-color="#909091"/>
<stop offset="1" stop-color="#909091" stop-opacity="0"/>
</linearGradient>
<clipPath id="clip0_12_63">
<rect width="360" height="800" fill="white"/>
</clipPath>
</defs>
</svg>
