<?xml version="1.0" standalone="no"?>
<!DOCTYPE svg PUBLIC "-//W3C//DTD SVG 20010904//EN"
 "http://www.w3.org/TR/2001/REC-SVG-20010904/DTD/svg10.dtd">
<svg version="1.0" xmlns="http://www.w3.org/2000/svg"
 width="1920.000000pt" height="1080.000000pt" viewBox="0 0 1920.000000 1080.000000"
 preserveAspectRatio="xMidYMid meet">

<g transform="translate(0.000000,1080.000000) scale(0.100000,-0.100000)"
fill="#000000" stroke="none">
<path d="M9490 10624 c-14 -1 -108 -8 -210 -14 -178 -11 -303 -29 -495 -72
-123 -27 -149 -34 -230 -58 -38 -12 -90 -28 -115 -35 -25 -8 -81 -28 -125 -45
-44 -17 -93 -36 -110 -41 -31 -9 -47 -17 -200 -90 -91 -45 -278 -147 -324
-179 -15 -9 -46 -30 -71 -46 -25 -16 -51 -35 -58 -41 -7 -7 -17 -13 -22 -13
-17 0 -321 -245 -400 -322 -248 -244 -432 -469 -596 -728 -80 -128 -207 -373
-249 -480 -16 -41 -32 -80 -36 -85 -5 -6 -22 -56 -39 -110 -18 -55 -38 -111
-45 -125 -7 -14 -15 -44 -19 -66 -3 -23 -13 -54 -21 -70 -8 -16 -15 -43 -15
-59 0 -17 -8 -60 -19 -96 -10 -36 -22 -90 -25 -120 -4 -30 -13 -81 -21 -114
-48 -208 -48 -863 0 -1085 8 -36 17 -83 20 -105 9 -60 45 -226 57 -260 6 -16
16 -55 23 -85 7 -30 21 -75 30 -100 9 -25 26 -70 37 -100 75 -208 179 -430
284 -603 30 -49 54 -91 54 -93 0 -2 18 -27 40 -56 22 -29 40 -56 40 -60 0 -9
138 -193 171 -229 13 -14 56 -63 96 -110 80 -94 252 -264 328 -324 28 -22 55
-45 60 -51 6 -6 46 -39 90 -72 44 -34 87 -67 95 -74 9 -7 40 -30 70 -50 30
-21 73 -50 95 -65 22 -16 51 -34 65 -41 14 -7 43 -23 65 -36 189 -113 446
-231 646 -295 83 -27 102 -26 168 7 92 46 91 41 91 433 0 265 -3 339 -13 347
-13 11 -105 7 -297 -14 -83 -8 -346 14 -382 32 -15 8 -37 14 -50 14 -13 0 -43
11 -68 24 -25 13 -56 27 -70 31 -43 13 -134 81 -175 130 -22 26 -47 55 -56 65
-9 9 -23 30 -31 46 -8 16 -19 38 -26 49 -6 11 -19 38 -28 60 -30 72 -68 149
-95 190 -82 127 -103 155 -149 208 -29 32 -93 88 -144 126 -105 79 -132 106
-141 143 -15 60 69 87 226 74 74 -6 128 -25 232 -82 59 -32 195 -180 266 -289
122 -185 239 -281 416 -341 62 -21 279 -31 350 -15 218 46 275 84 275 187 0
56 115 293 148 305 5 2 12 16 16 31 7 30 10 29 -134 48 -92 11 -251 45 -276
58 -11 5 -37 12 -59 16 -22 4 -62 16 -90 26 -27 11 -79 30 -115 44 -36 14 -85
36 -110 50 -25 14 -60 32 -77 40 -18 8 -33 19 -33 25 0 5 -10 13 -22 17 -13 4
-36 16 -53 28 -49 34 -189 149 -197 160 -3 6 -34 45 -68 86 -91 111 -201 313
-230 420 -6 25 -16 52 -20 61 -15 30 -50 191 -71 324 -24 162 -35 438 -20 520
6 33 16 92 21 130 22 145 80 304 164 446 38 66 116 176 141 199 29 27 31 56
10 106 -22 54 -50 259 -48 354 4 164 61 441 103 501 21 28 24 29 106 29 120 0
265 -40 449 -123 111 -51 253 -125 309 -161 120 -78 129 -82 188 -68 312 73
476 93 778 99 183 4 260 1 415 -16 105 -12 215 -28 245 -36 30 -8 66 -15 81
-15 14 0 55 -9 89 -20 84 -27 109 -25 166 11 84 52 271 156 358 199 162 78
348 130 470 130 95 0 103 -5 130 -85 61 -178 70 -240 71 -460 0 -161 -3 -210
-17 -250 -33 -98 -39 -150 -22 -184 9 -17 19 -31 24 -31 4 0 17 -15 29 -32 11
-18 38 -58 59 -89 84 -121 145 -261 193 -444 23 -85 24 -106 23 -385 0 -267
-2 -306 -23 -405 -44 -213 -101 -386 -168 -515 -76 -145 -253 -351 -368 -427
-32 -21 -74 -49 -94 -63 -153 -104 -366 -186 -626 -241 -137 -29 -192 -37
-248 -38 -53 -1 -69 -18 -46 -50 79 -110 109 -153 109 -159 0 -4 6 -19 14 -34
24 -45 58 -188 67 -278 5 -47 8 -329 7 -627 l-1 -542 26 -44 c21 -36 36 -48
82 -65 71 -27 75 -27 160 2 130 45 160 56 187 71 14 8 31 15 38 15 25 0 262
118 411 204 122 71 417 277 444 311 5 7 28 26 50 42 91 65 295 266 405 398 41
49 83 98 93 110 37 42 44 51 77 102 18 29 36 53 40 53 3 0 14 15 23 33 10 17
25 44 35 59 9 15 35 55 56 90 22 35 43 65 47 68 4 3 13 17 19 30 6 14 24 48
40 75 17 28 35 61 41 75 5 14 18 43 28 65 11 22 32 69 49 105 33 73 110 268
136 345 34 100 90 315 107 415 6 30 17 87 25 125 25 114 42 511 32 740 -8 203
-17 302 -38 410 -24 122 -52 252 -66 305 -8 30 -20 75 -25 100 -5 25 -16 56
-23 70 -7 14 -16 39 -20 55 -4 17 -16 53 -26 80 -11 28 -31 81 -46 119 -14 38
-30 77 -34 85 -5 9 -20 43 -35 76 -57 126 -79 170 -89 184 -15 19 -72 120 -90
158 -8 18 -20 38 -25 45 -6 7 -41 58 -78 113 -36 55 -85 123 -107 152 -23 29
-54 69 -69 90 -61 83 -268 301 -402 423 -71 65 -139 118 -354 279 -133 99
-512 303 -665 357 -22 8 -44 18 -50 22 -6 5 -49 21 -96 36 -47 15 -94 32 -105
37 -30 14 -271 78 -375 99 -139 28 -302 51 -430 59 -189 13 -339 19 -370 15z"/>
<path d="M4830 3304 c-129 -14 -155 -19 -276 -52 -59 -16 -172 -62 -220 -90
-99 -58 -182 -129 -316 -273 -10 -10 -31 -42 -48 -71 -17 -29 -35 -60 -40 -68
-25 -41 -89 -195 -113 -270 -72 -236 -101 -453 -102 -765 0 -262 13 -399 56
-566 10 -42 19 -86 19 -98 0 -12 9 -39 20 -61 11 -22 20 -48 20 -59 0 -24 126
-270 150 -293 10 -10 31 -34 46 -55 67 -92 229 -220 354 -280 247 -119 671
-174 975 -127 55 9 125 19 155 24 30 4 72 15 92 24 21 9 46 16 56 16 11 0 46
12 78 26 33 14 79 35 104 46 25 11 52 24 60 29 8 5 29 16 47 25 17 9 36 28 42
41 8 17 11 249 11 768 0 736 0 745 -20 765 -20 20 -29 21 -520 18 -393 -2
-502 -6 -512 -16 -10 -10 -13 -70 -13 -258 1 -218 3 -246 18 -262 15 -14 44
-18 201 -22 134 -4 187 -9 199 -19 15 -12 17 -45 17 -292 0 -239 -2 -280 -16
-293 -8 -9 -18 -16 -22 -16 -4 0 -68 -5 -142 -10 -96 -8 -168 -8 -250 0 -102
10 -124 16 -195 51 -75 38 -146 95 -206 168 -52 63 -122 228 -139 326 -5 33
-15 83 -21 110 -18 74 -16 578 1 630 7 22 19 67 26 100 16 77 45 158 78 215
14 25 29 52 33 60 25 55 173 190 223 205 14 4 35 13 47 21 32 20 155 45 273
54 179 15 485 -17 618 -65 63 -22 94 -6 105 55 4 25 14 68 22 95 8 28 19 82
26 120 6 39 16 75 20 81 5 7 13 43 18 80 l9 69 -31 27 c-18 15 -50 33 -72 38
-22 6 -49 15 -60 20 -52 25 -196 52 -379 70 -228 23 -327 23 -506 4z"/>
<path d="M8958 3202 c-85 -6 -78 135 -78 -1494 l0 -1448 27 -17 c24 -16 56
-18 306 -18 264 0 280 1 293 20 12 16 14 121 14 631 0 427 3 615 11 619 14 9
820 8 842 -1 16 -6 17 -52 17 -614 0 -584 1 -609 19 -631 l19 -24 282 0 282 0
19 24 c19 23 19 56 19 1462 l-1 1439 -22 25 -22 25 -265 2 c-146 1 -275 -1
-287 -5 -12 -4 -26 -22 -32 -39 -7 -21 -11 -198 -11 -532 0 -438 -2 -504 -16
-524 l-15 -22 -409 0 c-394 0 -410 1 -420 19 -6 13 -10 202 -10 545 0 574 2
556 -58 556 -275 4 -466 4 -504 2z"/>
<path d="M13505 3197 c-8 -4 -19 -17 -25 -28 -7 -13 -11 -471 -10 -1461 0
-1420 1 -1443 20 -1462 18 -18 37 -21 203 -24 226 -5 243 0 253 79 4 28 13 53
20 56 14 5 104 -44 104 -58 0 -5 6 -9 13 -9 7 0 30 -9 52 -20 101 -52 294 -97
450 -106 83 -5 122 -2 227 19 69 14 137 32 150 40 13 8 34 18 48 22 82 25 280
252 280 322 0 10 9 32 20 48 11 17 20 40 20 52 0 12 7 37 15 55 13 30 35 171
55 358 11 95 11 338 0 410 -4 30 -13 93 -20 140 -64 445 -332 687 -755 682
-114 -1 -223 -19 -310 -52 -27 -11 -63 -22 -80 -26 -16 -4 -37 -12 -45 -19
-19 -16 -51 -22 -67 -12 -10 6 -13 115 -13 487 0 547 6 509 -88 511 -236 5
-506 3 -517 -4z m1083 -1433 c54 -27 114 -90 127 -134 4 -14 13 -35 21 -48 18
-28 44 -221 44 -321 -1 -126 -27 -355 -44 -389 -9 -17 -16 -37 -16 -45 0 -27
-62 -96 -103 -115 -23 -11 -71 -23 -107 -26 -83 -8 -255 9 -283 29 -12 8 -29
15 -39 15 -27 0 -63 20 -77 42 -10 16 -13 119 -12 472 l2 451 22 17 c29 23
132 62 182 69 22 3 83 7 136 7 84 2 101 -1 147 -24z"/>
<path d="M6508 3102 c-60 -29 -158 -114 -158 -137 0 -8 -10 -31 -22 -51 -19
-32 -22 -51 -21 -135 1 -87 4 -104 29 -154 35 -68 91 -125 159 -161 40 -21 68
-27 142 -31 86 -5 95 -4 155 25 81 38 139 94 177 172 27 54 31 73 31 142 0 65
-5 92 -27 142 -29 66 -100 150 -148 173 -16 8 -41 21 -55 28 -17 10 -55 15
-115 15 -78 0 -98 -4 -147 -28z"/>
<path d="M7563 2834 c-12 -3 -26 -11 -32 -18 -7 -8 -12 -114 -13 -292 l-3
-279 -62 -21 c-35 -12 -84 -25 -110 -29 -50 -7 -146 -46 -157 -63 -3 -6 -7
-86 -9 -179 -2 -158 -1 -170 19 -198 l22 -29 125 -1 c98 -1 131 -5 150 -18
l26 -17 4 -522 3 -523 27 -71 c15 -39 38 -92 53 -118 31 -55 130 -166 149
-166 7 0 25 -10 41 -22 38 -30 81 -46 187 -69 49 -10 93 -21 97 -24 5 -3 74
-6 153 -6 102 0 155 5 186 16 24 8 59 15 78 15 40 0 88 22 97 46 10 25 18 303
11 362 -10 78 -15 81 -163 80 -118 -1 -133 1 -188 26 -46 21 -65 36 -84 69
l-25 42 -3 430 c-2 356 0 433 11 449 13 18 31 20 213 22 163 3 201 6 213 19
22 22 24 463 2 488 -12 15 -40 17 -217 17 -151 0 -205 3 -211 13 -4 6 -10 134
-13 284 -3 149 -9 275 -13 280 -9 8 -526 15 -564 7z"/>
<path d="M6373 2239 c-18 -5 -35 -14 -38 -19 -10 -16 -5 -1928 5 -1955 5 -14
21 -28 37 -32 15 -4 145 -8 289 -8 206 0 264 3 277 14 16 12 17 94 17 996 0
901 -1 984 -17 996 -12 11 -73 14 -277 16 -144 1 -275 -3 -293 -8z"/>
<path d="M11365 2242 c-22 -2 -43 -9 -47 -15 -4 -7 -8 -347 -8 -756 0 -719 1
-746 21 -829 11 -48 32 -114 46 -147 35 -84 115 -182 173 -213 14 -7 44 -23
66 -36 23 -13 95 -37 160 -52 104 -25 139 -29 274 -29 120 0 168 4 212 18 31
9 64 17 74 17 10 0 42 9 71 20 29 11 79 29 111 41 31 11 64 25 72 30 8 5 38
21 65 34 46 23 51 24 63 8 6 -9 12 -28 12 -42 1 -63 33 -74 209 -72 172 2 218
11 232 48 14 38 7 1949 -7 1963 -8 8 -97 12 -294 12 -267 0 -284 -2 -302 -20
-19 -19 -20 -38 -19 -724 l2 -704 -23 -21 c-13 -12 -61 -36 -108 -53 -77 -29
-97 -32 -205 -34 -146 -1 -182 13 -230 90 l-30 49 -5 698 c-6 775 1 716 -75
718 -122 3 -476 4 -510 1z"/>
</g>
</svg>
