<?xml version="1.0" standalone="no"?>
<!DOCTYPE svg PUBLIC "-//W3C//DTD SVG 20010904//EN"
 "http://www.w3.org/TR/2001/REC-SVG-20010904/DTD/svg10.dtd">
<svg version="1.0" xmlns="http://www.w3.org/2000/svg"
 width="1920.000000pt" height="1080.000000pt" viewBox="0 0 1920.000000 1080.000000"
 preserveAspectRatio="xMidYMid meet">

<g transform="translate(0.000000,1080.000000) scale(0.100000,-0.100000)"
fill="#000000" stroke="none">
<path d="M5015 10619 c-85 -10 -208 -41 -222 -55 -7 -7 -26 -15 -43 -19 -16
-4 -30 -11 -30 -16 0 -5 -10 -13 -21 -18 -12 -4 -57 -36 -99 -72 -74 -61 -149
-156 -165 -209 -4 -14 -16 -41 -26 -60 -11 -19 -19 -44 -19 -55 0 -11 -7 -33
-15 -49 -14 -26 -15 -545 -15 -4629 0 -4185 2 -4606 16 -4656 41 -141 58 -189
80 -223 13 -21 24 -42 24 -47 0 -5 6 -11 14 -14 8 -3 17 -19 21 -36 4 -17 10
-31 14 -31 6 0 86 -59 149 -111 7 -6 26 -15 42 -21 17 -5 30 -16 30 -24 0 -8
8 -14 19 -14 17 0 199 -61 220 -74 4 -3 2069 -6 4587 -6 l4579 -1 95 32 c151
49 243 101 338 188 12 12 26 21 30 21 12 0 69 74 92 118 12 22 28 46 36 53 8
6 14 20 14 31 0 10 9 36 19 56 12 22 24 76 30 132 7 64 12 1548 15 4495 4
4052 3 4416 -12 4602 -13 151 -21 206 -33 220 -16 18 -59 103 -59 116 0 4 -9
16 -20 27 -11 11 -20 27 -20 35 0 17 -93 115 -109 115 -6 0 -14 6 -18 13 -12
18 -81 70 -138 102 -27 16 -52 32 -55 36 -3 4 -27 10 -55 15 -27 4 -65 14 -85
23 -32 14 -487 15 -4590 16 -2505 1 -4582 -2 -4615 -6z m1920 -1410 c77 -20
102 -29 135 -47 22 -13 62 -34 91 -49 15 -7 32 -20 39 -28 7 -8 19 -15 26 -15
8 0 14 -4 14 -9 0 -5 13 -14 30 -21 16 -7 32 -20 35 -31 3 -10 15 -21 26 -24
10 -4 19 -11 19 -17 0 -6 10 -21 23 -34 59 -61 67 -71 67 -82 0 -6 9 -17 20
-24 11 -7 20 -19 20 -26 0 -8 11 -27 24 -42 13 -16 40 -81 61 -145 l37 -117 2
-197 c1 -165 -2 -201 -15 -221 -9 -14 -19 -46 -23 -72 -4 -26 -14 -55 -22 -63
-9 -8 -20 -31 -25 -50 -11 -41 -85 -155 -100 -155 -5 0 -12 -8 -16 -17 -3 -10
-40 -50 -81 -90 -185 -180 -309 -239 -555 -264 -135 -13 -259 -2 -387 36 -80
24 -203 85 -233 116 -10 11 -23 19 -30 19 -7 0 -32 18 -56 40 -24 22 -47 40
-51 40 -4 0 -15 12 -25 26 -9 14 -30 40 -46 57 -16 16 -29 41 -29 53 0 14 -6
24 -14 24 -8 0 -18 9 -21 21 -4 12 -16 30 -26 40 -10 10 -19 27 -19 38 0 10
-7 24 -15 31 -8 7 -17 28 -21 49 -3 20 -12 54 -21 76 -16 44 -37 192 -37 270
0 116 17 250 35 281 11 17 19 39 19 48 0 35 73 167 147 264 21 28 114 122 120
122 2 0 19 11 37 25 18 14 38 25 44 25 6 0 15 6 19 13 20 31 165 107 205 107
10 0 35 7 56 17 27 12 81 18 202 23 190 7 207 6 315 -21z m4935 -2369 c203
-31 293 -50 327 -68 12 -7 35 -12 50 -12 16 0 44 -11 63 -25 19 -14 42 -25 52
-25 9 0 22 -9 28 -20 7 -13 21 -20 40 -20 16 0 32 -5 35 -10 3 -6 39 -26 78
-45 40 -19 88 -50 107 -70 19 -19 38 -35 42 -35 14 0 108 -93 108 -107 0 -7 6
-13 14 -13 8 0 24 -14 37 -31 13 -17 32 -41 41 -52 10 -12 28 -35 41 -52 26
-33 67 -114 67 -133 0 -6 6 -15 14 -19 19 -11 95 -155 111 -212 18 -65 43
-132 59 -161 7 -14 16 -48 19 -77 3 -29 13 -65 21 -81 8 -15 18 -57 21 -93 4
-35 13 -82 22 -104 9 -24 17 -89 20 -160 3 -73 11 -138 21 -165 15 -41 17
-203 20 -1635 2 -874 1 -1618 -3 -1651 -11 -101 48 -95 -827 -92 -702 3 -748
4 -765 21 -17 17 -18 84 -20 1295 -3 1177 -5 1298 -23 1541 -14 176 -26 273
-35 292 -8 15 -15 41 -15 56 0 16 -11 49 -25 75 -14 26 -25 61 -25 78 0 20 -5
30 -15 30 -8 0 -15 8 -15 19 0 10 -8 29 -19 42 -10 13 -21 33 -25 44 -3 11
-22 31 -41 44 -19 13 -37 32 -40 42 -4 10 -12 19 -18 19 -7 0 -20 8 -29 18
-30 31 -45 40 -110 66 -108 43 -207 65 -325 72 -100 6 -124 4 -235 -21 -67
-15 -135 -33 -150 -41 -14 -8 -38 -14 -52 -14 -14 0 -33 -8 -43 -19 -10 -10
-42 -31 -71 -45 -31 -16 -61 -39 -70 -57 -9 -16 -24 -31 -33 -34 -9 -3 -29
-23 -43 -45 -14 -22 -30 -40 -35 -40 -10 0 -61 -96 -61 -115 0 -7 -9 -24 -20
-38 -11 -14 -20 -38 -20 -55 0 -16 -9 -41 -20 -55 -14 -18 -20 -40 -20 -80 0
-31 -9 -79 -22 -113 l-21 -59 -6 -1436 c-6 -1393 -7 -1438 -25 -1458 -10 -11
-33 -24 -50 -28 -17 -5 -367 -6 -778 -3 -700 5 -748 6 -765 23 -17 17 -18 133
-21 2508 l-3 2490 31 30 30 30 722 -2 c398 -1 733 -5 744 -10 38 -14 44 -58
44 -321 0 -243 1 -249 19 -243 25 8 81 59 81 74 0 7 7 14 15 17 8 4 15 12 15
19 0 8 9 17 20 20 13 4 20 15 20 31 0 13 5 24 11 24 6 0 29 18 52 40 68 66 73
70 84 70 6 0 13 6 16 13 3 7 24 26 48 42 24 17 47 34 50 38 3 4 20 16 37 25
18 9 71 40 119 67 266 153 521 210 953 213 159 1 211 -3 370 -28z m-4400 -110
c11 -20 15 -4984 5 -5012 -3 -7 -19 -21 -36 -30 -28 -17 -84 -18 -770 -18
-630 0 -744 2 -768 15 -28 14 -29 17 -36 117 -9 144 -13 3667 -5 4258 4 267 4
515 1 552 -7 67 4 111 33 130 6 4 361 8 788 8 767 0 777 0 788 -20z"/>
</g>
</svg>
