<?xml version="1.0" standalone="no"?>
<!DOCTYPE svg PUBLIC "-//W3C//DTD SVG 20010904//EN"
 "http://www.w3.org/TR/2001/REC-SVG-20010904/DTD/svg10.dtd">
<svg version="1.0" xmlns="http://www.w3.org/2000/svg"
 width="1920.000000pt" height="1080.000000pt" viewBox="0 0 1920.000000 1080.000000"
 preserveAspectRatio="xMidYMid meet">

<g transform="translate(0.000000,1080.000000) scale(0.100000,-0.100000)"
fill="#000000" stroke="none">
<path d="M10305 10569 c-33 -4 -76 -14 -95 -22 -19 -8 -71 -20 -115 -26 -44
-7 -107 -18 -140 -26 -33 -8 -94 -19 -135 -25 -41 -6 -111 -19 -155 -30 -44
-10 -107 -21 -140 -25 -33 -4 -91 -15 -130 -25 -38 -11 -131 -28 -205 -39 -74
-12 -153 -27 -175 -35 -22 -8 -64 -15 -92 -16 -29 0 -70 -7 -90 -15 -21 -8
-74 -19 -118 -25 -44 -6 -98 -17 -120 -25 -22 -7 -78 -19 -125 -25 -47 -7
-101 -18 -120 -26 -19 -9 -87 -22 -150 -30 -63 -9 -135 -22 -160 -30 -25 -8
-90 -20 -145 -28 -55 -8 -127 -21 -160 -29 -122 -31 -292 -67 -370 -77 -44 -6
-97 -18 -117 -25 -21 -8 -93 -20 -160 -26 -68 -6 -148 -19 -178 -29 -30 -10
-89 -21 -130 -25 -41 -4 -87 -14 -102 -21 -15 -8 -91 -27 -170 -43 -79 -16
-165 -34 -193 -40 -130 -27 -276 -51 -335 -57 -36 -3 -82 -12 -103 -20 -21 -8
-84 -19 -140 -25 -55 -5 -121 -19 -146 -29 -26 -11 -93 -24 -149 -30 -57 -6
-114 -15 -125 -19 -12 -5 -74 -16 -137 -26 -63 -9 -161 -28 -216 -41 -56 -13
-115 -24 -131 -24 -16 0 -72 -9 -124 -21 -52 -12 -112 -24 -134 -28 -22 -4
-63 -18 -92 -31 l-52 -24 -7 -66 c-4 -36 -8 -1811 -8 -3945 -1 -3226 1 -3885
12 -3910 24 -54 74 -85 149 -96 37 -5 89 -16 114 -25 26 -8 96 -19 155 -24
110 -9 231 -27 245 -36 4 -2 45 -11 91 -19 46 -8 100 -21 119 -28 19 -8 75
-19 124 -26 50 -6 117 -20 150 -31 33 -11 98 -24 144 -30 46 -5 107 -16 135
-25 28 -8 94 -23 146 -34 112 -22 259 -55 350 -76 36 -9 92 -20 125 -25 33 -6
80 -14 105 -20 25 -6 74 -15 110 -21 36 -6 90 -17 120 -26 79 -21 253 -62 340
-79 41 -8 116 -24 165 -35 50 -11 126 -26 170 -33 44 -8 109 -21 145 -29 134
-32 368 -82 505 -107 55 -11 133 -28 174 -40 41 -11 84 -20 95 -20 23 0 169
-35 183 -43 5 -3 53 -10 106 -16 54 -6 111 -17 125 -25 15 -7 71 -19 125 -26
54 -6 122 -20 150 -29 29 -10 78 -21 109 -25 31 -4 67 -15 80 -25 16 -12 49
-20 108 -24 47 -4 114 -14 150 -22 36 -9 121 -26 190 -39 69 -13 136 -28 150
-33 14 -6 54 -14 90 -18 36 -4 90 -15 120 -25 30 -10 91 -23 135 -30 44 -6 90
-18 102 -26 24 -15 168 -20 189 -6 13 8 29 63 39 136 16 114 3 10063 -13
10186 l-7 55 -45 7 c-57 8 -109 8 -185 -3z m-2530 -3260 c121 -14 220 -37 277
-66 26 -12 54 -23 61 -23 8 0 31 -11 51 -25 20 -14 47 -25 59 -25 12 0 35 -14
52 -31 16 -16 49 -45 71 -62 112 -86 133 -104 165 -145 18 -24 49 -63 66 -86
18 -22 42 -52 53 -66 36 -43 69 -94 81 -122 6 -16 14 -28 18 -28 9 0 80 -140
121 -240 17 -41 39 -91 50 -110 10 -19 21 -64 25 -100 4 -36 15 -85 25 -110 9
-25 22 -87 29 -138 6 -50 15 -102 20 -115 5 -12 14 -114 21 -227 11 -209 0
-521 -21 -577 -5 -13 -14 -76 -20 -140 -6 -74 -17 -130 -29 -152 -9 -20 -21
-56 -25 -81 -4 -25 -18 -68 -31 -97 -13 -28 -24 -59 -24 -69 0 -19 -65 -160
-85 -184 -7 -8 -17 -29 -22 -45 -10 -31 -45 -89 -83 -137 -11 -15 -25 -41 -31
-57 -6 -17 -15 -31 -20 -31 -4 0 -23 -22 -41 -49 -17 -27 -42 -55 -55 -62 -12
-7 -25 -20 -29 -31 -3 -10 -9 -18 -14 -18 -4 0 -33 -24 -64 -53 -94 -88 -198
-166 -222 -167 -6 0 -19 -9 -29 -20 -10 -11 -37 -25 -59 -31 -23 -6 -48 -17
-56 -24 -8 -7 -35 -18 -60 -25 -25 -7 -64 -21 -88 -32 -99 -44 -387 -60 -622
-34 -123 14 -185 32 -315 91 -27 13 -61 27 -75 30 -71 20 -220 135 -359 277
-61 62 -111 116 -111 119 0 4 -18 28 -40 55 -21 26 -53 73 -69 104 -17 32 -37
63 -45 69 -8 7 -18 32 -22 56 -4 27 -15 52 -30 66 -13 12 -24 30 -24 38 0 9
-9 34 -21 55 -11 21 -25 63 -30 94 -6 32 -17 64 -25 73 -9 10 -20 48 -25 85
-5 38 -18 94 -28 124 -48 140 -48 982 0 1072 6 12 16 55 21 97 5 42 18 95 28
119 11 23 24 68 30 99 5 31 16 63 24 72 7 9 21 41 31 71 25 75 71 176 84 184
6 4 11 16 11 27 0 11 11 31 25 45 14 14 25 31 25 39 0 7 16 33 35 57 117 147
152 187 172 199 13 7 25 21 29 31 9 31 175 167 217 179 21 5 41 17 44 25 9 25
224 122 308 139 17 4 46 13 65 21 74 29 388 43 555 23z"/>
<path d="M7390 6596 c-19 -7 -52 -21 -72 -30 -21 -9 -47 -16 -58 -16 -12 0
-25 -10 -32 -25 -6 -13 -19 -27 -29 -30 -22 -7 -117 -99 -144 -139 -11 -17
-40 -69 -64 -116 -23 -47 -49 -92 -56 -100 -7 -8 -16 -40 -20 -70 -4 -30 -16
-70 -26 -88 -13 -22 -23 -69 -30 -134 -5 -56 -16 -113 -23 -127 -35 -67 -29
-485 10 -710 8 -46 14 -105 14 -132 0 -32 8 -64 25 -95 14 -26 25 -58 25 -72
0 -32 81 -195 145 -293 46 -69 79 -106 104 -114 12 -4 36 -22 53 -41 17 -19
37 -34 43 -34 7 0 42 -13 77 -30 53 -25 80 -31 162 -35 53 -2 101 -7 105 -10
10 -6 130 39 206 77 70 36 146 105 182 166 14 23 33 47 42 52 10 5 23 27 29
48 7 22 19 45 27 52 8 7 15 18 15 25 0 7 13 38 29 68 16 30 32 79 36 108 4 30
13 63 20 74 30 49 56 446 38 585 -7 52 -12 136 -13 185 0 94 -19 230 -45 325
-8 30 -15 66 -15 80 0 40 -48 182 -69 205 -11 11 -24 38 -30 61 -7 27 -19 44
-36 52 -14 6 -28 24 -32 41 -9 32 -148 191 -167 191 -7 0 -35 12 -62 27 -45
24 -60 26 -189 30 -102 2 -150 -1 -175 -11z"/>
<path d="M11310 8131 c-362 -6 -376 -7 -416 -28 -23 -12 -44 -29 -47 -37 -3
-8 -6 -453 -7 -989 0 -853 1 -976 15 -987 8 -6 17 -27 21 -46 4 -24 16 -40 40
-55 19 -11 34 -25 34 -30 0 -5 6 -9 13 -9 6 0 32 -16 56 -35 24 -19 51 -35 61
-35 9 0 38 -20 64 -45 27 -25 55 -45 63 -45 7 0 25 -11 38 -24 13 -13 39 -29
58 -35 19 -7 43 -21 52 -31 10 -11 23 -20 29 -20 5 0 21 -11 35 -24 15 -13 53
-33 86 -44 71 -24 229 -39 239 -23 4 5 38 31 77 57 39 26 75 56 80 66 6 11 21
18 38 18 18 0 40 11 59 30 18 17 40 30 51 30 10 0 24 7 32 16 7 8 26 22 43 31
17 9 52 33 77 55 25 21 51 38 57 38 7 0 28 16 48 35 20 20 45 35 58 35 13 0
29 7 37 16 14 17 87 70 130 94 15 8 55 34 90 58 37 25 75 42 91 42 16 0 41 8
56 19 42 28 81 54 116 76 71 44 101 64 112 73 10 9 53 38 123 84 14 10 35 24
46 33 11 9 43 31 70 48 28 18 67 44 86 60 20 15 41 27 48 27 6 0 21 11 33 25
12 14 27 25 33 25 7 0 31 14 53 30 23 17 45 30 48 30 4 0 30 20 58 43 28 24
58 48 67 53 9 5 41 30 70 56 83 72 109 92 172 127 33 18 77 45 99 62 23 16 47
29 54 29 8 0 21 11 30 25 9 14 23 25 32 25 15 0 49 28 105 88 17 17 38 32 46
32 9 0 22 9 29 21 7 11 30 27 50 36 20 8 56 30 79 49 23 19 46 34 52 34 6 0
25 13 44 29 18 16 46 33 61 37 15 3 30 12 32 19 3 7 27 26 53 44 91 58 127
141 86 195 -8 11 -15 32 -15 47 0 40 -16 77 -50 116 -17 19 -30 39 -30 46 0 7
-15 24 -33 39 -107 89 -120 98 -150 98 -18 0 -51 5 -75 10 -23 6 -84 14 -135
20 -110 11 -2421 20 -2957 11z"/>
<path d="M14672 7160 c-23 -16 -48 -30 -56 -30 -8 0 -19 -6 -23 -14 -10 -18
-124 -96 -140 -96 -7 0 -13 -5 -13 -10 0 -6 -19 -20 -42 -30 -24 -11 -63 -34
-88 -50 -25 -17 -66 -40 -92 -51 -27 -12 -48 -25 -48 -30 0 -10 -120 -89 -135
-89 -7 0 -20 -9 -30 -20 -10 -11 -23 -20 -29 -20 -6 0 -29 -14 -50 -30 -22
-17 -45 -30 -51 -30 -7 0 -22 -8 -34 -17 -11 -10 -44 -34 -71 -53 -28 -19 -74
-53 -103 -74 -29 -21 -68 -46 -87 -55 -20 -9 -49 -26 -65 -39 -17 -13 -55 -39
-85 -59 -30 -20 -57 -40 -60 -44 -3 -5 -26 -17 -50 -28 -25 -11 -50 -29 -57
-40 -7 -10 -41 -33 -77 -50 -35 -16 -67 -35 -71 -41 -9 -15 -126 -90 -140 -90
-7 0 -33 -21 -59 -47 -26 -27 -56 -57 -67 -68 -11 -11 -23 -24 -27 -28 -16
-18 -145 -107 -165 -113 -12 -4 -37 -20 -55 -35 -18 -16 -39 -29 -46 -29 -8 0
-19 -7 -27 -16 -7 -8 -31 -25 -53 -36 -23 -11 -62 -38 -87 -59 -26 -22 -51
-39 -57 -39 -5 0 -26 -13 -47 -30 -21 -16 -44 -30 -51 -30 -7 0 -17 -7 -21
-15 -8 -14 -118 -85 -132 -85 -4 0 -18 -11 -31 -25 -13 -14 -29 -25 -37 -25
-7 0 -20 -11 -28 -24 -9 -13 -30 -30 -48 -37 -18 -7 -39 -21 -47 -31 -8 -10
-59 -41 -114 -68 -133 -67 -176 -68 -267 -7 -66 45 -188 107 -208 107 -7 0
-23 11 -37 25 -14 14 -49 42 -77 61 -29 20 -60 44 -70 55 -10 10 -28 19 -40
19 -12 0 -31 6 -42 14 -11 7 -36 18 -56 25 -59 19 -80 4 -111 -80 l-27 -74 -3
-620 c-1 -341 -1 -894 0 -1230 3 -593 4 -611 24 -651 33 -68 41 -69 428 -80
416 -11 2530 -15 2655 -5 66 6 188 15 270 22 176 13 283 42 327 90 15 16 35
29 46 29 10 0 25 12 33 29 8 16 32 55 54 87 22 33 47 75 54 94 7 19 19 49 26
65 16 38 36 238 33 330 -1 39 -1 831 0 1760 1 982 -2 1729 -7 1784 -12 122
-32 137 -109 81z"/>
</g>
</svg>
